<?xml version="1.0" encoding="UTF-8" standalone="no"?>
<svg
   width="512"
   height="512"
   viewBox="0 0 512 512"
   version="1.1"
   id="svg1"
   sodipodi:docname="favicon.svg"
   inkscape:version="1.3 (0e150ed6c4, 2023-07-21)"
   xmlns:inkscape="http://www.inkscape.org/namespaces/inkscape"
   xmlns:sodipodi="http://sodipodi.sourceforge.net/DTD/sodipodi-0.dtd"
   xmlns="http://www.w3.org/2000/svg"
   xmlns:svg="http://www.w3.org/2000/svg">
  <defs
     id="defs1" />
  <sodipodi:namedview
     id="namedview1"
     pagecolor="#ffffff"
     bordercolor="#666666"
     borderopacity="1.0"
     inkscape:showpageshadow="2"
     inkscape:pageopacity="0.0"
     inkscape:pagecheckerboard="0"
     inkscape:deskcolor="#d1d1d1"
     inkscape:zoom="0.56291123"
     inkscape:cx="575.5792"
     inkscape:cy="385.49595"
     inkscape:window-width="3840"
     inkscape:window-height="2128"
     inkscape:window-x="0"
     inkscape:window-y="32"
     inkscape:window-maximized="1"
     inkscape:current-layer="svg1" />
  <title
     id="title1">ionicons-v5-l</title>
  <rect
     style="fill:#ffffff;fill-opacity:1;stroke:none;stroke-width:32;stroke-linecap:square;stroke-linejoin:miter;stroke-miterlimit:4;stroke-dasharray:none;stroke-dashoffset:0;stroke-opacity:1;paint-order:markers stroke fill"
     id="rect2"
     width="400"
     height="400"
     x="56"
     y="56"
     ry="0" />
  <path
     d="M432,32H80A64.07,64.07,0,0,0,16,96V416a64.07,64.07,0,0,0,64,64H432a64.07,64.07,0,0,0,64-64V96A64.07,64.07,0,0,0,432,32ZM96,256a16,16,0,0,1-10-28.49L150.39,176,86,124.49a16,16,0,1,1,20-25l80,64a16,16,0,0,1,0,25l-80,64A16,16,0,0,1,96,256Zm160,0H192a16,16,0,0,1,0-32h64a16,16,0,0,1,0,32Z"
     id="path1" />
</svg>
