<?xml version="1.0" encoding="UTF-8"?>
<svg width="50px" height="50px" viewBox="0 0 50 50" version="1.1" xmlns="http://www.w3.org/2000/svg" xmlns:xlink="http://www.w3.org/1999/xlink">
    <title>favicon</title>
    <g id="Page-1" stroke="none" stroke-width="1" fill="none" fill-rule="evenodd">
        <g id="favicon" transform="translate(0.100000, 0.100000)" fill-rule="nonzero">
            <circle id="Oval" fill="#00F6FF" cx="24.9" cy="24.9" r="24.9"></circle>
            <path d="M4.8,18.6 L20.3,18.6 C20.5,18.6 20.6,18.7 20.7,18.9 L22.5,24.1 C22.6,24.2 22.5,24.4 22.4,24.5 L16.9,30.7 C16.9,30.9 16.8,30.9 16.7,30.9 L9.3,30.9 C9.1,30.9 9,30.8 8.9,30.6 L4.4,19.2 C4.3,18.9 4.5,18.6 4.8,18.6 Z" id="Path" fill="#000000"></path>
            <path d="M32.7,18.9 L27.3,24.7 C27.2,24.8 27.1,25 27.2,25.2 L29.1,30.5 C29.2,30.7 29.3,30.8 29.5,30.8 L44.5,30.8 C44.8,30.8 45,30.5 44.9,30.3 L41,19.3 C40.9,19 40.8,18.9 40.6,18.9 L33,18.9 C32.9,18.7 32.8,18.8 32.7,18.9 Z" id="Path" fill="#000000"></path>
            <path d="M19.1,33 L24.2,27.4 C24.3,27.3 24.6,27.3 24.6,27.5 L26.8,33.7 C26.8,33.8 26.9,33.9 27,33.9 L34.6,33.9 C34.8,33.9 34.9,34.2 34.8,34.3 L24.2,45.6 C24.1,45.7 23.8,45.7 23.8,45.5 L18.9,33.2 C19,33.1 19,33 19.1,33 Z" id="Path" fill="#000000"></path>
            <path d="M25.9,4.4 L30.4,15.9 C30.5,16.1 30.4,16.3 30.3,16.5 L25.7,21.8 C25.5,22 25.2,22 25.1,21.7 L22.6,16 C22.5,15.8 22.4,15.7 22.2,15.7 L15.3,15.7 C15,15.7 14.9,15.4 15.1,15.2 L25.4,4.3 C25.6,4.2 25.8,4.2 25.9,4.4 Z" id="Path" fill="#000000"></path>
        </g>
    </g>
</svg>